<mxfile host="app.diagrams.net" modified="2023-04-22T01:09:38.360Z" agent="Mozilla/5.0 (Windows NT 10.0; Win64; x64; rv:109.0) Gecko/20100101 Firefox/111.0" version="21.2.1" etag="3ykfd0BwEn1zx1ULBVLs" type="github">
  <diagram name="Page-1" id="NvuGWOtJET4MEzPSI7FO">
    <mxGraphModel>
      <root>
        <mxCell id="0" />
        <mxCell id="1" parent="0" />
      </root>
    </mxGraphModel>
  </diagram>
</mxfile>
